<svg width="562" height="119" viewBox="0 0 562 119" fill="none" xmlns="http://www.w3.org/2000/svg">
<path d="M131.963 96V26.1818H161.076C166.304 26.1818 170.679 26.9205 174.201 28.3977C177.747 29.875 180.406 31.9432 182.179 34.6023C183.974 37.2614 184.872 40.3409 184.872 43.8409C184.872 46.5 184.315 48.875 183.201 50.9659C182.088 53.0341 180.554 54.75 178.599 56.1136C176.644 57.4773 174.383 58.4318 171.815 58.9773V59.6591C174.633 59.7955 177.235 60.5568 179.622 61.9432C182.031 63.3295 183.963 65.2614 185.417 67.7386C186.872 70.1932 187.599 73.1023 187.599 76.4659C187.599 80.2159 186.644 83.5682 184.735 86.5227C182.826 89.4545 180.065 91.7727 176.451 93.4773C172.838 95.1591 168.451 96 163.292 96H131.963ZM148.838 82.3977H159.269C162.929 82.3977 165.622 81.7045 167.349 80.3182C169.099 78.9318 169.974 77 169.974 74.5227C169.974 72.7273 169.554 71.1818 168.713 69.8864C167.872 68.5682 166.679 67.5568 165.133 66.8523C163.588 66.125 161.735 65.7614 159.576 65.7614H148.838V82.3977ZM148.838 54.8864H158.179C160.019 54.8864 161.656 54.5795 163.088 53.9659C164.519 53.3523 165.633 52.4659 166.429 51.3068C167.247 50.1477 167.656 48.75 167.656 47.1136C167.656 44.7727 166.826 42.9318 165.167 41.5909C163.508 40.25 161.269 39.5795 158.451 39.5795H148.838V54.8864ZM215.356 96.9886C209.856 96.9886 205.129 95.8636 201.174 93.6136C197.242 91.3409 194.208 88.1818 192.072 84.1364C189.958 80.0682 188.901 75.3523 188.901 69.9886C188.901 64.6023 189.958 59.8864 192.072 55.8409C194.208 51.7727 197.242 48.6136 201.174 46.3636C205.129 44.0909 209.856 42.9545 215.356 42.9545C220.856 42.9545 225.572 44.0909 229.504 46.3636C233.458 48.6136 236.492 51.7727 238.606 55.8409C240.742 59.8864 241.81 64.6023 241.81 69.9886C241.81 75.3523 240.742 80.0682 238.606 84.1364C236.492 88.1818 233.458 91.3409 229.504 93.6136C225.572 95.8636 220.856 96.9886 215.356 96.9886ZM215.458 84.4091C217.458 84.4091 219.151 83.7955 220.538 82.5682C221.924 81.3409 222.981 79.6364 223.708 77.4545C224.458 75.2727 224.833 72.75 224.833 69.8864C224.833 66.9773 224.458 64.4318 223.708 62.25C222.981 60.0682 221.924 58.3636 220.538 57.1364C219.151 55.9091 217.458 55.2955 215.458 55.2955C213.39 55.2955 211.64 55.9091 210.208 57.1364C208.799 58.3636 207.719 60.0682 206.969 62.25C206.242 64.4318 205.879 66.9773 205.879 69.8864C205.879 72.75 206.242 75.2727 206.969 77.4545C207.719 79.6364 208.799 81.3409 210.208 82.5682C211.64 83.7955 213.39 84.4091 215.458 84.4091ZM275.107 43.6364V55.9091H242.073V43.6364H275.107ZM248.993 31.0909H265.664V79.5341C265.664 80.5568 265.823 81.3864 266.141 82.0227C266.482 82.6364 266.971 83.0795 267.607 83.3523C268.243 83.6023 269.005 83.7273 269.891 83.7273C270.527 83.7273 271.198 83.6705 271.902 83.5568C272.63 83.4205 273.175 83.3068 273.539 83.2159L276.062 95.25C275.266 95.4773 274.141 95.7614 272.687 96.1023C271.255 96.4432 269.539 96.6591 267.539 96.75C263.63 96.9318 260.277 96.4773 257.482 95.3864C254.709 94.2727 252.584 92.5455 251.107 90.2045C249.652 87.8636 248.948 84.9205 248.993 81.375V31.0909ZM309.74 96H291.604L315.16 26.1818H337.626L361.183 96H343.047L326.649 43.7727H326.104L309.74 96ZM307.32 68.5227H345.229V81.3409H307.32V68.5227ZM380.571 66.1364V96H363.9V43.6364H379.752V53.25H380.332C381.491 50.0455 383.468 47.5341 386.264 45.7159C389.059 43.875 392.389 42.9545 396.252 42.9545C399.934 42.9545 403.127 43.7841 405.832 45.4432C408.559 47.0795 410.673 49.375 412.173 52.3295C413.696 55.2614 414.446 58.6932 414.423 62.625V96H397.752V65.8977C397.775 62.9886 397.037 60.7159 395.537 59.0795C394.059 57.4432 392.002 56.625 389.366 56.625C387.616 56.625 386.071 57.0114 384.73 57.7841C383.412 58.5341 382.389 59.6136 381.662 61.0227C380.957 62.4318 380.593 64.1364 380.571 66.1364ZM419.944 96V43.6364H436.614V96H419.944ZM428.296 37.5341C425.955 37.5341 423.944 36.7614 422.262 35.2159C420.58 33.6477 419.739 31.7614 419.739 29.5568C419.739 27.375 420.58 25.5114 422.262 23.9659C423.944 22.3977 425.955 21.6136 428.296 21.6136C430.66 21.6136 432.671 22.3977 434.33 23.9659C436.012 25.5114 436.853 27.375 436.853 29.5568C436.853 31.7614 436.012 33.6477 434.33 35.2159C432.671 36.7614 430.66 37.5341 428.296 37.5341ZM466.868 96.9886C461.346 96.9886 456.607 95.8523 452.652 93.5795C448.721 91.3068 445.698 88.1477 443.584 84.1023C441.471 80.0341 440.414 75.3295 440.414 69.9886C440.414 64.625 441.471 59.9205 443.584 55.875C445.721 51.8068 448.755 48.6364 452.687 46.3636C456.641 44.0909 461.357 42.9545 466.834 42.9545C471.675 42.9545 475.891 43.8295 479.482 45.5795C483.096 47.3295 485.914 49.8068 487.937 53.0114C489.982 56.1932 491.062 59.9318 491.175 64.2273H475.596C475.277 61.5455 474.368 59.4432 472.868 57.9205C471.391 56.3977 469.459 55.6364 467.073 55.6364C465.141 55.6364 463.448 56.1818 461.993 57.2727C460.539 58.3409 459.402 59.9318 458.584 62.0455C457.789 64.1364 457.391 66.7273 457.391 69.8182C457.391 72.9091 457.789 75.5227 458.584 77.6591C459.402 79.7727 460.539 81.375 461.993 82.4659C463.448 83.5341 465.141 84.0682 467.073 84.0682C468.618 84.0682 469.982 83.7386 471.164 83.0795C472.368 82.4205 473.357 81.4545 474.13 80.1818C474.902 78.8864 475.391 77.3182 475.596 75.4773H491.175C491.016 79.7955 489.937 83.5682 487.937 86.7955C485.959 90.0227 483.175 92.5341 479.584 94.3295C476.016 96.1023 471.777 96.9886 466.868 96.9886ZM509.668 96.8864C506.327 96.8864 503.361 96.3295 500.77 95.2159C498.202 94.0795 496.168 92.375 494.668 90.1023C493.191 87.8068 492.452 84.9318 492.452 81.4773C492.452 78.5682 492.963 76.1136 493.986 74.1136C495.009 72.1136 496.418 70.4886 498.213 69.2386C500.009 67.9886 502.077 67.0455 504.418 66.4091C506.759 65.75 509.259 65.3068 511.918 65.0795C514.895 64.8068 517.293 64.5227 519.111 64.2273C520.929 63.9091 522.247 63.4659 523.066 62.8977C523.906 62.3068 524.327 61.4773 524.327 60.4091V60.2386C524.327 58.4886 523.725 57.1364 522.52 56.1818C521.316 55.2273 519.691 54.75 517.645 54.75C515.441 54.75 513.668 55.2273 512.327 56.1818C510.986 57.1364 510.134 58.4545 509.77 60.1364L494.395 59.5909C494.85 56.4091 496.02 53.5682 497.906 51.0682C499.816 48.5455 502.429 46.5682 505.747 45.1364C509.088 43.6818 513.1 42.9545 517.781 42.9545C521.122 42.9545 524.202 43.3523 527.02 44.1477C529.838 44.9205 532.293 46.0568 534.384 47.5568C536.475 49.0341 538.088 50.8523 539.225 53.0114C540.384 55.1705 540.963 57.6364 540.963 60.4091V96H525.281V88.7045H524.872C523.941 90.4773 522.747 91.9773 521.293 93.2045C519.861 94.4318 518.168 95.3523 516.213 95.9659C514.281 96.5795 512.1 96.8864 509.668 96.8864ZM514.816 85.9773C516.611 85.9773 518.225 85.6136 519.656 84.8864C521.111 84.1591 522.27 83.1591 523.134 81.8864C523.997 80.5909 524.429 79.0909 524.429 77.3864V72.4091C523.952 72.6591 523.372 72.8864 522.691 73.0909C522.031 73.2955 521.304 73.4886 520.509 73.6705C519.713 73.8523 518.895 74.0114 518.054 74.1477C517.213 74.2841 516.406 74.4091 515.634 74.5227C514.066 74.7727 512.725 75.1591 511.611 75.6818C510.52 76.2045 509.679 76.8864 509.088 77.7273C508.52 78.5455 508.236 79.5227 508.236 80.6591C508.236 82.3864 508.85 83.7045 510.077 84.6136C511.327 85.5227 512.906 85.9773 514.816 85.9773Z" fill="#5D52A0"/>
<rect x="24" y="80" width="8" height="8" fill="#F07DFF"/>
<rect x="24" y="80" width="8" height="8" fill="#F07DFF"/>
<rect x="32" y="80" width="8" height="8" fill="#F07DFF"/>
<rect x="32" y="80" width="8" height="8" fill="#F07DFF"/>
<rect x="40" y="80" width="8" height="8" fill="#F07DFF"/>
<rect x="40" y="80" width="8" height="8" fill="#F07DFF"/>
<rect x="48" y="80" width="8" height="8" fill="#F07DFF"/>
<rect x="48" y="80" width="8" height="8" fill="#F07DFF"/>
<rect x="56" y="80" width="8" height="8" fill="#F07DFF"/>
<rect x="56" y="80" width="8" height="8" fill="#F07DFF"/>
<rect x="64" y="80" width="8" height="8" fill="#F07DFF"/>
<rect x="64" y="80" width="8" height="8" fill="#F07DFF"/>
<rect x="72" y="80" width="8" height="8" fill="#F07DFF"/>
<rect x="72" y="80" width="8" height="8" fill="#F07DFF"/>
<rect x="80" y="80" width="8" height="8" fill="#F07DFF"/>
<rect x="80" y="80" width="8" height="8" fill="#F07DFF"/>
<rect x="24" y="72" width="8" height="8" fill="#F07DFF"/>
<rect x="24" y="72" width="8" height="8" fill="#F07DFF"/>
<rect x="32" y="72" width="8" height="8" fill="#F07DFF"/>
<rect x="32" y="72" width="8" height="8" fill="#F07DFF"/>
<rect x="40" y="72" width="8" height="8" fill="#F07DFF"/>
<rect x="40" y="72" width="8" height="8" fill="#F07DFF"/>
<rect x="48" y="72" width="8" height="8" fill="#F07DFF"/>
<rect x="48" y="72" width="8" height="8" fill="#F07DFF"/>
<rect x="56" y="72" width="8" height="8" fill="#F07DFF"/>
<rect x="56" y="72" width="8" height="8" fill="#F07DFF"/>
<rect x="64" y="72" width="8" height="8" fill="#F07DFF"/>
<rect x="64" y="72" width="8" height="8" fill="#F07DFF"/>
<rect x="72" y="72" width="8" height="8" fill="#F07DFF"/>
<rect x="72" y="72" width="8" height="8" fill="#F07DFF"/>
<rect x="80" y="72" width="8" height="8" fill="#F07DFF"/>
<rect x="80" y="72" width="8" height="8" fill="#F07DFF"/>
<rect x="24" y="64" width="8" height="8" fill="#F07DFF"/>
<rect x="24" y="64" width="8" height="8" fill="#F07DFF"/>
<rect x="32" y="64" width="8" height="8" fill="#F07DFF"/>
<rect x="32" y="64" width="8" height="8" fill="#F07DFF"/>
<rect x="40" y="64" width="8" height="8" fill="#F07DFF"/>
<rect x="40" y="64" width="8" height="8" fill="#F07DFF"/>
<rect x="48" y="64" width="8" height="8" fill="#F07DFF"/>
<rect x="48" y="64" width="8" height="8" fill="#F07DFF"/>
<rect x="56" y="64" width="8" height="8" fill="#F07DFF"/>
<rect x="56" y="64" width="8" height="8" fill="#F07DFF"/>
<rect x="64" y="64" width="8" height="8" fill="#F07DFF"/>
<rect x="64" y="64" width="8" height="8" fill="#F07DFF"/>
<rect x="72" y="64" width="8" height="8" fill="#F07DFF"/>
<rect x="72" y="64" width="8" height="8" fill="#F07DFF"/>
<rect x="80" y="64" width="8" height="8" fill="#F07DFF"/>
<rect x="80" y="64" width="8" height="8" fill="#F07DFF"/>
<rect x="24" y="56" width="8" height="8" fill="#F07DFF"/>
<rect x="24" y="56" width="8" height="8" fill="#F07DFF"/>
<rect x="32" y="56" width="8" height="8" fill="#F07DFF"/>
<rect x="32" y="56" width="8" height="8" fill="#F07DFF"/>
<rect x="40" y="56" width="8" height="8" fill="#F07DFF"/>
<rect x="40" y="56" width="8" height="8" fill="#F07DFF"/>
<rect x="48" y="56" width="8" height="8" fill="#F07DFF"/>
<rect x="48" y="56" width="8" height="8" fill="#F07DFF"/>
<rect x="56" y="56" width="8" height="8" fill="#F07DFF"/>
<rect x="56" y="56" width="8" height="8" fill="#F07DFF"/>
<rect x="64" y="56" width="8" height="8" fill="#F07DFF"/>
<rect x="64" y="56" width="8" height="8" fill="#F07DFF"/>
<rect x="72" y="56" width="8" height="8" fill="#F07DFF"/>
<rect x="72" y="56" width="8" height="8" fill="#F07DFF"/>
<rect x="80" y="56" width="8" height="8" fill="#F07DFF"/>
<rect x="80" y="56" width="8" height="8" fill="#F07DFF"/>
<rect x="24" y="48" width="8" height="8" fill="#F07DFF"/>
<rect x="24" y="48" width="8" height="8" fill="#F07DFF"/>
<rect x="32" y="48" width="8" height="8" fill="#F07DFF"/>
<rect x="32" y="48" width="8" height="8" fill="#F07DFF"/>
<rect x="40" y="48" width="8" height="8" fill="#F07DFF"/>
<rect x="40" y="48" width="8" height="8" fill="#F07DFF"/>
<rect x="48" y="48" width="8" height="8" fill="#F07DFF"/>
<rect x="48" y="48" width="8" height="8" fill="#F07DFF"/>
<rect x="56" y="48" width="8" height="8" fill="#F07DFF"/>
<rect x="56" y="48" width="8" height="8" fill="#F07DFF"/>
<rect x="64" y="48" width="8" height="8" fill="#F07DFF"/>
<rect x="64" y="48" width="8" height="8" fill="#F07DFF"/>
<rect x="72" y="48" width="8" height="8" fill="#F07DFF"/>
<rect x="72" y="48" width="8" height="8" fill="#F07DFF"/>
<rect x="80" y="48" width="8" height="8" fill="#F07DFF"/>
<rect x="80" y="48" width="8" height="8" fill="#F07DFF"/>
<rect x="24" y="40" width="8" height="8" fill="#F07DFF"/>
<rect x="24" y="40" width="8" height="8" fill="#F07DFF"/>
<rect x="32" y="40" width="8" height="8" fill="#F07DFF"/>
<rect x="32" y="40" width="8" height="8" fill="#F07DFF"/>
<rect x="40" y="40" width="8" height="8" fill="#F07DFF"/>
<rect x="40" y="40" width="8" height="8" fill="#F07DFF"/>
<rect x="48" y="40" width="8" height="8" fill="#F07DFF"/>
<rect x="48" y="40" width="8" height="8" fill="#F07DFF"/>
<rect x="56" y="40" width="8" height="8" fill="#F07DFF"/>
<rect x="56" y="40" width="8" height="8" fill="#F07DFF"/>
<rect x="64" y="40" width="8" height="8" fill="#F07DFF"/>
<rect x="64" y="40" width="8" height="8" fill="#F07DFF"/>
<rect x="72" y="40" width="8" height="8" fill="#F07DFF"/>
<rect x="72" y="40" width="8" height="8" fill="#F07DFF"/>
<rect x="80" y="40" width="8" height="8" fill="#F07DFF"/>
<rect x="80" y="40" width="8" height="8" fill="#F07DFF"/>
<rect x="24" y="88" width="8" height="8" fill="#F07DFF"/>
<rect x="24" y="88" width="8" height="8" fill="#F07DFF"/>
<rect x="32" y="88" width="8" height="8" fill="#F07DFF"/>
<rect x="32" y="88" width="8" height="8" fill="#F07DFF"/>
<rect x="40" y="88" width="8" height="8" fill="#F07DFF"/>
<rect x="40" y="88" width="8" height="8" fill="#F07DFF"/>
<rect x="48" y="88" width="8" height="8" fill="#F07DFF"/>
<rect x="48" y="88" width="8" height="8" fill="#F07DFF"/>
<rect x="56" y="88" width="8" height="8" fill="#F07DFF"/>
<rect x="56" y="88" width="8" height="8" fill="#F07DFF"/>
<rect x="64" y="88" width="8" height="8" fill="#F07DFF"/>
<rect x="64" y="88" width="8" height="8" fill="#F07DFF"/>
<rect x="72" y="88" width="8" height="8" fill="#F07DFF"/>
<rect x="72" y="88" width="8" height="8" fill="#F07DFF"/>
<rect x="80" y="88" width="8" height="8" fill="#F07DFF"/>
<rect x="80" y="88" width="8" height="8" fill="#F07DFF"/>
<rect x="24" y="96" width="8" height="8" fill="#5D52A0"/>
<rect x="16" y="88" width="8" height="8" fill="#5D52A0"/>
<rect x="16" y="80" width="8" height="8" fill="#5D52A0"/>
<rect x="16" y="72" width="8" height="8" fill="#5D52A0"/>
<rect x="16" y="64" width="8" height="8" fill="#5D52A0"/>
<rect x="16" y="88" width="8" height="8" fill="#5D52A0"/>
<rect x="16" y="80" width="8" height="8" fill="#5D52A0"/>
<rect x="16" y="72" width="8" height="8" fill="#5D52A0"/>
<rect x="24" y="70" width="8" height="8" fill="#5D52A0"/>
<rect x="32" y="70" width="8" height="8" fill="#5D52A0"/>
<rect x="32" y="70" width="8" height="8" fill="#5D52A0"/>
<rect x="32" y="62" width="8" height="8" fill="#5D52A0"/>
<rect x="40" y="62" width="8" height="8" fill="#5D52A0"/>
<rect x="48" y="62" width="8" height="8" fill="#5D52A0"/>
<rect x="56" y="62" width="8" height="8" fill="#5D52A0"/>
<rect x="64" y="62" width="8" height="8" fill="#5D52A0"/>
<rect x="40" y="70" width="8" height="8" fill="white"/>
<rect x="48" y="70" width="8" height="8" fill="#5D52A0"/>
<rect x="56" y="70" width="8" height="8" fill="#5D52A0"/>
<rect x="64" y="70" width="8" height="8" fill="white"/>
<rect x="40" y="78" width="8" height="8" fill="#5D52A0"/>
<rect x="48" y="78" width="8" height="8" fill="#5D52A0"/>
<rect x="56" y="78" width="8" height="8" fill="#5D52A0"/>
<rect x="64" y="78" width="8" height="8" fill="#5D52A0"/>
<rect x="72" y="62" width="8" height="8" fill="#5D52A0"/>
<rect x="72" y="70" width="8" height="8" fill="#5D52A0"/>
<rect x="32" y="78" width="8" height="8" fill="#5D52A0"/>
<rect x="72" y="78" width="8" height="8" fill="#5D52A0"/>
<rect x="80" y="70" width="8" height="8" fill="#5D52A0"/>
<rect x="16" y="64" width="8" height="8" fill="#5D52A0"/>
<rect x="16" y="56" width="8" height="8" fill="#5D52A0"/>
<rect x="16" y="48" width="8" height="8" fill="#5D52A0"/>
<rect x="88" y="88" width="8" height="8" fill="#5D52A0"/>
<rect x="88" y="80" width="8" height="8" fill="#5D52A0"/>
<rect x="88" y="72" width="8" height="8" fill="#5D52A0"/>
<rect x="88" y="64" width="8" height="8" fill="#5D52A0"/>
<rect x="88" y="56" width="8" height="8" fill="#5D52A0"/>
<rect x="88" y="48" width="8" height="8" fill="#5D52A0"/>
<rect x="8" y="80" width="8" height="8" fill="#5D52A0"/>
<rect x="8" y="72" width="8" height="8" fill="#5D52A0"/>
<rect x="8" y="64" width="8" height="8" fill="#5D52A0"/>
<rect x="8" y="56" width="8" height="8" fill="#5D52A0"/>
<rect x="8" y="48" width="8" height="8" fill="#5D52A0"/>
<rect x="8" y="40" width="8" height="8" fill="#5D52A0"/>
<rect x="24" y="48" width="8" height="8" fill="#5D52A0"/>
<rect x="24" y="40" width="8" height="8" fill="#5D52A0"/>
<rect x="96" y="80" width="8" height="8" fill="#5D52A0"/>
<rect x="96" y="72" width="8" height="8" fill="#5D52A0"/>
<rect x="96" y="64" width="8" height="8" fill="#5D52A0"/>
<rect x="96" y="56" width="8" height="8" fill="#5D52A0"/>
<rect x="96" y="48" width="8" height="8" fill="#5D52A0"/>
<rect x="96" y="40" width="8" height="8" fill="#5D52A0"/>
<rect x="80" y="48" width="8" height="8" fill="#5D52A0"/>
<rect x="80" y="40" width="8" height="8" fill="#5D52A0"/>
<rect x="32" y="96" width="8" height="8" fill="#5D52A0"/>
<rect x="40" y="96" width="8" height="8" fill="#5D52A0"/>
<rect x="48" y="96" width="8" height="8" fill="#5D52A0"/>
<rect x="56" y="96" width="8" height="8" fill="#5D52A0"/>
<rect x="64" y="96" width="8" height="8" fill="#5D52A0"/>
<rect x="72" y="96" width="8" height="8" fill="#5D52A0"/>
<rect x="32" y="32" width="8" height="8" fill="#5D52A0"/>
<rect x="40" y="32" width="8" height="8" fill="#5D52A0"/>
<rect x="48" y="32" width="8" height="8" fill="#5D52A0"/>
<rect x="52" y="24" width="8" height="8" fill="#5D52A0"/>
<rect x="56" y="16" width="8" height="8" fill="#5D52A0"/>
<rect x="56" y="8" width="8" height="8" fill="#5D52A0"/>
<rect x="48" y="8" width="8" height="8" fill="#5D52A0"/>
<rect x="48" y="16" width="8" height="8" fill="#5D52A0"/>
<rect x="16" y="104" width="8" height="8" fill="white"/>
<rect x="16" y="96" width="8" height="8" fill="white"/>
<rect x="8" y="88" width="8" height="8" fill="white"/>
<rect y="88" width="8" height="8" fill="white"/>
<rect x="8" y="96" width="8" height="8" fill="white"/>
<rect y="80" width="8" height="8" fill="white"/>
<rect y="72" width="8" height="8" fill="white"/>
<rect y="64" width="8" height="8" fill="white"/>
<rect y="56" width="8" height="8" fill="white"/>
<rect y="48" width="8" height="8" fill="white"/>
<rect y="40" width="8" height="8" fill="white"/>
<rect x="16" y="40" width="8" height="8" fill="white"/>
<rect x="24" y="32" width="8" height="8" fill="white"/>
<rect x="44" y="24" width="8" height="8" fill="white"/>
<rect x="40" y="8" width="8" height="8" fill="white"/>
<rect x="40" width="8" height="8" fill="white"/>
<rect x="40" y="16" width="8" height="8" fill="white"/>
<rect x="56" y="32" width="8" height="8" fill="#5D52A0"/>
<rect x="64" y="32" width="8" height="8" fill="#5D52A0"/>
<rect x="72" y="32" width="8" height="8" fill="#5D52A0"/>
<rect x="8" y="32" width="8" height="8" fill="white"/>
<rect x="96" y="32" width="8" height="8" fill="white"/>
<rect x="32" y="24" width="8" height="8" fill="white"/>
<rect x="40" y="24" width="8" height="8" fill="white"/>
<rect x="56" width="8" height="8" fill="white"/>
<rect x="48" width="8" height="8" fill="white"/>
<rect x="64" y="24" width="8" height="8" fill="white"/>
<rect x="72" y="24" width="8" height="8" fill="white"/>
<rect x="80" y="96" width="8" height="8" fill="#5D52A0"/>
<rect x="24" y="104" width="8" height="8" fill="white"/>
<rect x="32" y="104" width="8" height="8" fill="white"/>
<rect x="40" y="104" width="8" height="8" fill="white"/>
<rect x="48" y="104" width="8" height="8" fill="white"/>
<rect x="56" y="104" width="8" height="8" fill="white"/>
<rect x="64" y="104" width="8" height="8" fill="white"/>
<rect x="72" y="104" width="8" height="8" fill="white"/>
<rect x="80" y="104" width="8" height="8" fill="white"/>
<rect x="96" y="88" width="8" height="8" fill="white"/>
<rect x="104" y="80" width="8" height="8" fill="white"/>
<rect x="104" y="72" width="8" height="8" fill="white"/>
<rect x="104" y="64" width="8" height="8" fill="white"/>
<rect x="104" y="56" width="8" height="8" fill="white"/>
<rect x="104" y="48" width="8" height="8" fill="white"/>
<rect x="104" y="40" width="8" height="8" fill="white"/>
<rect x="88" y="40" width="8" height="8" fill="white"/>
<rect x="60" y="24" width="8" height="8" fill="white"/>
<rect x="64" y="16" width="8" height="8" fill="white"/>
<rect x="64" y="8" width="8" height="8" fill="white"/>
<rect x="64" width="8" height="8" fill="white"/>
<rect x="80" y="32" width="8" height="8" fill="white"/>
<rect y="32" width="8" height="8" fill="white"/>
<rect x="16" y="32" width="8" height="8" fill="white"/>
<rect x="24" y="24" width="8" height="8" fill="white"/>
<rect x="104" y="32" width="8" height="8" fill="white"/>
<rect x="88" y="32" width="8" height="8" fill="white"/>
<rect x="80" y="24" width="8" height="8" fill="white"/>
<rect x="88" y="96" width="8" height="8" fill="white"/>
<rect x="104" y="88" width="8" height="8" fill="white"/>
<rect x="96" y="96" width="8" height="8" fill="white"/>
<rect x="88" y="104" width="8" height="8" fill="white"/>
<rect x="24" y="88" width="8" height="8" fill="#F07DFF"/>
<rect x="24" y="88" width="8" height="8" fill="#F07DFF"/>
<rect x="32" y="88" width="8" height="8" fill="#F07DFF"/>
<rect x="32" y="88" width="8" height="8" fill="#F07DFF"/>
<rect x="40" y="88" width="8" height="8" fill="#F07DFF"/>
<rect x="40" y="88" width="8" height="8" fill="#F07DFF"/>
<rect x="48" y="88" width="8" height="8" fill="#F07DFF"/>
<rect x="48" y="88" width="8" height="8" fill="#F07DFF"/>
<rect x="56" y="88" width="8" height="8" fill="#F07DFF"/>
<rect x="56" y="88" width="8" height="8" fill="#F07DFF"/>
<rect x="64" y="88" width="8" height="8" fill="#F07DFF"/>
<rect x="64" y="88" width="8" height="8" fill="#F07DFF"/>
<rect x="72" y="88" width="8" height="8" fill="#F07DFF"/>
<rect x="72" y="88" width="8" height="8" fill="#F07DFF"/>
<rect x="80" y="88" width="8" height="8" fill="#F07DFF"/>
<rect x="80" y="88" width="8" height="8" fill="#F07DFF"/>
</svg>
