<svg width="580" height="128" viewBox="0 0 580 128" fill="none" xmlns="http://www.w3.org/2000/svg">
<rect width="580" height="128" rx="24" fill="white"/>
<path d="M146.963 100V30.1818H176.076C181.304 30.1818 185.679 30.9205 189.201 32.3977C192.747 33.875 195.406 35.9432 197.179 38.6023C198.974 41.2614 199.872 44.3409 199.872 47.8409C199.872 50.5 199.315 52.875 198.201 54.9659C197.088 57.0341 195.554 58.75 193.599 60.1136C191.644 61.4773 189.383 62.4318 186.815 62.9773V63.6591C189.633 63.7955 192.235 64.5568 194.622 65.9432C197.031 67.3295 198.963 69.2614 200.417 71.7386C201.872 74.1932 202.599 77.1023 202.599 80.4659C202.599 84.2159 201.644 87.5682 199.735 90.5227C197.826 93.4545 195.065 95.7727 191.451 97.4773C187.838 99.1591 183.451 100 178.292 100H146.963ZM163.838 86.3977H174.269C177.929 86.3977 180.622 85.7045 182.349 84.3182C184.099 82.9318 184.974 81 184.974 78.5227C184.974 76.7273 184.554 75.1818 183.713 73.8864C182.872 72.5682 181.679 71.5568 180.133 70.8523C178.588 70.125 176.735 69.7614 174.576 69.7614H163.838V86.3977ZM163.838 58.8864H173.179C175.019 58.8864 176.656 58.5795 178.088 57.9659C179.519 57.3523 180.633 56.4659 181.429 55.3068C182.247 54.1477 182.656 52.75 182.656 51.1136C182.656 48.7727 181.826 46.9318 180.167 45.5909C178.508 44.25 176.269 43.5795 173.451 43.5795H163.838V58.8864ZM230.356 100.989C224.856 100.989 220.129 99.8636 216.174 97.6136C212.242 95.3409 209.208 92.1818 207.072 88.1364C204.958 84.0682 203.901 79.3523 203.901 73.9886C203.901 68.6023 204.958 63.8864 207.072 59.8409C209.208 55.7727 212.242 52.6136 216.174 50.3636C220.129 48.0909 224.856 46.9545 230.356 46.9545C235.856 46.9545 240.572 48.0909 244.504 50.3636C248.458 52.6136 251.492 55.7727 253.606 59.8409C255.742 63.8864 256.81 68.6023 256.81 73.9886C256.81 79.3523 255.742 84.0682 253.606 88.1364C251.492 92.1818 248.458 95.3409 244.504 97.6136C240.572 99.8636 235.856 100.989 230.356 100.989ZM230.458 88.4091C232.458 88.4091 234.151 87.7955 235.538 86.5682C236.924 85.3409 237.981 83.6364 238.708 81.4545C239.458 79.2727 239.833 76.75 239.833 73.8864C239.833 70.9773 239.458 68.4318 238.708 66.25C237.981 64.0682 236.924 62.3636 235.538 61.1364C234.151 59.9091 232.458 59.2955 230.458 59.2955C228.39 59.2955 226.64 59.9091 225.208 61.1364C223.799 62.3636 222.719 64.0682 221.969 66.25C221.242 68.4318 220.879 70.9773 220.879 73.8864C220.879 76.75 221.242 79.2727 221.969 81.4545C222.719 83.6364 223.799 85.3409 225.208 86.5682C226.64 87.7955 228.39 88.4091 230.458 88.4091ZM290.107 47.6364V59.9091H257.073V47.6364H290.107ZM263.993 35.0909H280.664V83.5341C280.664 84.5568 280.823 85.3864 281.141 86.0227C281.482 86.6364 281.971 87.0795 282.607 87.3523C283.243 87.6023 284.005 87.7273 284.891 87.7273C285.527 87.7273 286.198 87.6705 286.902 87.5568C287.63 87.4205 288.175 87.3068 288.539 87.2159L291.062 99.25C290.266 99.4773 289.141 99.7614 287.687 100.102C286.255 100.443 284.539 100.659 282.539 100.75C278.63 100.932 275.277 100.477 272.482 99.3864C269.709 98.2727 267.584 96.5455 266.107 94.2045C264.652 91.8636 263.948 88.9205 263.993 85.375V35.0909ZM324.74 100H306.604L330.16 30.1818H352.626L376.183 100H358.047L341.649 47.7727H341.104L324.74 100ZM322.32 72.5227H360.229V85.3409H322.32V72.5227ZM395.571 70.1364V100H378.9V47.6364H394.752V57.25H395.332C396.491 54.0455 398.468 51.5341 401.264 49.7159C404.059 47.875 407.389 46.9545 411.252 46.9545C414.934 46.9545 418.127 47.7841 420.832 49.4432C423.559 51.0795 425.673 53.375 427.173 56.3295C428.696 59.2614 429.446 62.6932 429.423 66.625V100H412.752V69.8977C412.775 66.9886 412.037 64.7159 410.537 63.0795C409.059 61.4432 407.002 60.625 404.366 60.625C402.616 60.625 401.071 61.0114 399.73 61.7841C398.412 62.5341 397.389 63.6136 396.662 65.0227C395.957 66.4318 395.593 68.1364 395.571 70.1364ZM434.944 100V47.6364H451.614V100H434.944ZM443.296 41.5341C440.955 41.5341 438.944 40.7614 437.262 39.2159C435.58 37.6477 434.739 35.7614 434.739 33.5568C434.739 31.375 435.58 29.5114 437.262 27.9659C438.944 26.3977 440.955 25.6136 443.296 25.6136C445.66 25.6136 447.671 26.3977 449.33 27.9659C451.012 29.5114 451.853 31.375 451.853 33.5568C451.853 35.7614 451.012 37.6477 449.33 39.2159C447.671 40.7614 445.66 41.5341 443.296 41.5341ZM481.868 100.989C476.346 100.989 471.607 99.8523 467.652 97.5795C463.721 95.3068 460.698 92.1477 458.584 88.1023C456.471 84.0341 455.414 79.3295 455.414 73.9886C455.414 68.625 456.471 63.9205 458.584 59.875C460.721 55.8068 463.755 52.6364 467.687 50.3636C471.641 48.0909 476.357 46.9545 481.834 46.9545C486.675 46.9545 490.891 47.8295 494.482 49.5795C498.096 51.3295 500.914 53.8068 502.937 57.0114C504.982 60.1932 506.062 63.9318 506.175 68.2273H490.596C490.277 65.5455 489.368 63.4432 487.868 61.9205C486.391 60.3977 484.459 59.6364 482.073 59.6364C480.141 59.6364 478.448 60.1818 476.993 61.2727C475.539 62.3409 474.402 63.9318 473.584 66.0455C472.789 68.1364 472.391 70.7273 472.391 73.8182C472.391 76.9091 472.789 79.5227 473.584 81.6591C474.402 83.7727 475.539 85.375 476.993 86.4659C478.448 87.5341 480.141 88.0682 482.073 88.0682C483.618 88.0682 484.982 87.7386 486.164 87.0795C487.368 86.4205 488.357 85.4545 489.13 84.1818C489.902 82.8864 490.391 81.3182 490.596 79.4773H506.175C506.016 83.7955 504.937 87.5682 502.937 90.7955C500.959 94.0227 498.175 96.5341 494.584 98.3295C491.016 100.102 486.777 100.989 481.868 100.989ZM524.668 100.886C521.327 100.886 518.361 100.33 515.77 99.2159C513.202 98.0795 511.168 96.375 509.668 94.1023C508.191 91.8068 507.452 88.9318 507.452 85.4773C507.452 82.5682 507.963 80.1136 508.986 78.1136C510.009 76.1136 511.418 74.4886 513.213 73.2386C515.009 71.9886 517.077 71.0455 519.418 70.4091C521.759 69.75 524.259 69.3068 526.918 69.0795C529.895 68.8068 532.293 68.5227 534.111 68.2273C535.929 67.9091 537.247 67.4659 538.066 66.8977C538.906 66.3068 539.327 65.4773 539.327 64.4091V64.2386C539.327 62.4886 538.725 61.1364 537.52 60.1818C536.316 59.2273 534.691 58.75 532.645 58.75C530.441 58.75 528.668 59.2273 527.327 60.1818C525.986 61.1364 525.134 62.4545 524.77 64.1364L509.395 63.5909C509.85 60.4091 511.02 57.5682 512.906 55.0682C514.816 52.5455 517.429 50.5682 520.747 49.1364C524.088 47.6818 528.1 46.9545 532.781 46.9545C536.122 46.9545 539.202 47.3523 542.02 48.1477C544.838 48.9205 547.293 50.0568 549.384 51.5568C551.475 53.0341 553.088 54.8523 554.225 57.0114C555.384 59.1705 555.963 61.6364 555.963 64.4091V100H540.281V92.7045H539.872C538.941 94.4773 537.747 95.9773 536.293 97.2045C534.861 98.4318 533.168 99.3523 531.213 99.9659C529.281 100.58 527.1 100.886 524.668 100.886ZM529.816 89.9773C531.611 89.9773 533.225 89.6136 534.656 88.8864C536.111 88.1591 537.27 87.1591 538.134 85.8864C538.997 84.5909 539.429 83.0909 539.429 81.3864V76.4091C538.952 76.6591 538.372 76.8864 537.691 77.0909C537.031 77.2955 536.304 77.4886 535.509 77.6705C534.713 77.8523 533.895 78.0114 533.054 78.1477C532.213 78.2841 531.406 78.4091 530.634 78.5227C529.066 78.7727 527.725 79.1591 526.611 79.6818C525.52 80.2045 524.679 80.8864 524.088 81.7273C523.52 82.5455 523.236 83.5227 523.236 84.6591C523.236 86.3864 523.85 87.7045 525.077 88.6136C526.327 89.5227 527.906 89.9773 529.816 89.9773Z" fill="#5D52A0"/>
<rect x="39" y="84" width="8" height="8" fill="#F07DFF"/>
<rect x="39" y="84" width="8" height="8" fill="#F07DFF"/>
<rect x="47" y="84" width="8" height="8" fill="#F07DFF"/>
<rect x="47" y="84" width="8" height="8" fill="#F07DFF"/>
<rect x="55" y="84" width="8" height="8" fill="#F07DFF"/>
<rect x="55" y="84" width="8" height="8" fill="#F07DFF"/>
<rect x="63" y="84" width="8" height="8" fill="#F07DFF"/>
<rect x="63" y="84" width="8" height="8" fill="#F07DFF"/>
<rect x="71" y="84" width="8" height="8" fill="#F07DFF"/>
<rect x="71" y="84" width="8" height="8" fill="#F07DFF"/>
<rect x="79" y="84" width="8" height="8" fill="#F07DFF"/>
<rect x="79" y="84" width="8" height="8" fill="#F07DFF"/>
<rect x="87" y="84" width="8" height="8" fill="#F07DFF"/>
<rect x="87" y="84" width="8" height="8" fill="#F07DFF"/>
<rect x="95" y="84" width="8" height="8" fill="#F07DFF"/>
<rect x="95" y="84" width="8" height="8" fill="#F07DFF"/>
<rect x="39" y="76" width="8" height="8" fill="#F07DFF"/>
<rect x="39" y="76" width="8" height="8" fill="#F07DFF"/>
<rect x="47" y="76" width="8" height="8" fill="#F07DFF"/>
<rect x="47" y="76" width="8" height="8" fill="#F07DFF"/>
<rect x="55" y="76" width="8" height="8" fill="#F07DFF"/>
<rect x="55" y="76" width="8" height="8" fill="#F07DFF"/>
<rect x="63" y="76" width="8" height="8" fill="#F07DFF"/>
<rect x="63" y="76" width="8" height="8" fill="#F07DFF"/>
<rect x="71" y="76" width="8" height="8" fill="#F07DFF"/>
<rect x="71" y="76" width="8" height="8" fill="#F07DFF"/>
<rect x="79" y="76" width="8" height="8" fill="#F07DFF"/>
<rect x="79" y="76" width="8" height="8" fill="#F07DFF"/>
<rect x="87" y="76" width="8" height="8" fill="#F07DFF"/>
<rect x="87" y="76" width="8" height="8" fill="#F07DFF"/>
<rect x="95" y="76" width="8" height="8" fill="#F07DFF"/>
<rect x="95" y="76" width="8" height="8" fill="#F07DFF"/>
<rect x="39" y="68" width="8" height="8" fill="#F07DFF"/>
<rect x="39" y="68" width="8" height="8" fill="#F07DFF"/>
<rect x="47" y="68" width="8" height="8" fill="#F07DFF"/>
<rect x="47" y="68" width="8" height="8" fill="#F07DFF"/>
<rect x="55" y="68" width="8" height="8" fill="#F07DFF"/>
<rect x="55" y="68" width="8" height="8" fill="#F07DFF"/>
<rect x="63" y="68" width="8" height="8" fill="#F07DFF"/>
<rect x="63" y="68" width="8" height="8" fill="#F07DFF"/>
<rect x="71" y="68" width="8" height="8" fill="#F07DFF"/>
<rect x="71" y="68" width="8" height="8" fill="#F07DFF"/>
<rect x="79" y="68" width="8" height="8" fill="#F07DFF"/>
<rect x="79" y="68" width="8" height="8" fill="#F07DFF"/>
<rect x="87" y="68" width="8" height="8" fill="#F07DFF"/>
<rect x="87" y="68" width="8" height="8" fill="#F07DFF"/>
<rect x="95" y="68" width="8" height="8" fill="#F07DFF"/>
<rect x="95" y="68" width="8" height="8" fill="#F07DFF"/>
<rect x="39" y="60" width="8" height="8" fill="#F07DFF"/>
<rect x="39" y="60" width="8" height="8" fill="#F07DFF"/>
<rect x="47" y="60" width="8" height="8" fill="#F07DFF"/>
<rect x="47" y="60" width="8" height="8" fill="#F07DFF"/>
<rect x="55" y="60" width="8" height="8" fill="#F07DFF"/>
<rect x="55" y="60" width="8" height="8" fill="#F07DFF"/>
<rect x="63" y="60" width="8" height="8" fill="#F07DFF"/>
<rect x="63" y="60" width="8" height="8" fill="#F07DFF"/>
<rect x="71" y="60" width="8" height="8" fill="#F07DFF"/>
<rect x="71" y="60" width="8" height="8" fill="#F07DFF"/>
<rect x="79" y="60" width="8" height="8" fill="#F07DFF"/>
<rect x="79" y="60" width="8" height="8" fill="#F07DFF"/>
<rect x="87" y="60" width="8" height="8" fill="#F07DFF"/>
<rect x="87" y="60" width="8" height="8" fill="#F07DFF"/>
<rect x="95" y="60" width="8" height="8" fill="#F07DFF"/>
<rect x="95" y="60" width="8" height="8" fill="#F07DFF"/>
<rect x="39" y="52" width="8" height="8" fill="#F07DFF"/>
<rect x="39" y="52" width="8" height="8" fill="#F07DFF"/>
<rect x="47" y="52" width="8" height="8" fill="#F07DFF"/>
<rect x="47" y="52" width="8" height="8" fill="#F07DFF"/>
<rect x="55" y="52" width="8" height="8" fill="#F07DFF"/>
<rect x="55" y="52" width="8" height="8" fill="#F07DFF"/>
<rect x="63" y="52" width="8" height="8" fill="#F07DFF"/>
<rect x="63" y="52" width="8" height="8" fill="#F07DFF"/>
<rect x="71" y="52" width="8" height="8" fill="#F07DFF"/>
<rect x="71" y="52" width="8" height="8" fill="#F07DFF"/>
<rect x="79" y="52" width="8" height="8" fill="#F07DFF"/>
<rect x="79" y="52" width="8" height="8" fill="#F07DFF"/>
<rect x="87" y="52" width="8" height="8" fill="#F07DFF"/>
<rect x="87" y="52" width="8" height="8" fill="#F07DFF"/>
<rect x="95" y="52" width="8" height="8" fill="#F07DFF"/>
<rect x="95" y="52" width="8" height="8" fill="#F07DFF"/>
<rect x="39" y="44" width="8" height="8" fill="#F07DFF"/>
<rect x="39" y="44" width="8" height="8" fill="#F07DFF"/>
<rect x="47" y="44" width="8" height="8" fill="#F07DFF"/>
<rect x="47" y="44" width="8" height="8" fill="#F07DFF"/>
<rect x="55" y="44" width="8" height="8" fill="#F07DFF"/>
<rect x="55" y="44" width="8" height="8" fill="#F07DFF"/>
<rect x="63" y="44" width="8" height="8" fill="#F07DFF"/>
<rect x="63" y="44" width="8" height="8" fill="#F07DFF"/>
<rect x="71" y="44" width="8" height="8" fill="#F07DFF"/>
<rect x="71" y="44" width="8" height="8" fill="#F07DFF"/>
<rect x="79" y="44" width="8" height="8" fill="#F07DFF"/>
<rect x="79" y="44" width="8" height="8" fill="#F07DFF"/>
<rect x="87" y="44" width="8" height="8" fill="#F07DFF"/>
<rect x="87" y="44" width="8" height="8" fill="#F07DFF"/>
<rect x="95" y="44" width="8" height="8" fill="#F07DFF"/>
<rect x="95" y="44" width="8" height="8" fill="#F07DFF"/>
<rect x="39" y="92" width="8" height="8" fill="#F07DFF"/>
<rect x="39" y="92" width="8" height="8" fill="#F07DFF"/>
<rect x="47" y="92" width="8" height="8" fill="#F07DFF"/>
<rect x="47" y="92" width="8" height="8" fill="#F07DFF"/>
<rect x="55" y="92" width="8" height="8" fill="#F07DFF"/>
<rect x="55" y="92" width="8" height="8" fill="#F07DFF"/>
<rect x="63" y="92" width="8" height="8" fill="#F07DFF"/>
<rect x="63" y="92" width="8" height="8" fill="#F07DFF"/>
<rect x="71" y="92" width="8" height="8" fill="#F07DFF"/>
<rect x="71" y="92" width="8" height="8" fill="#F07DFF"/>
<rect x="79" y="92" width="8" height="8" fill="#F07DFF"/>
<rect x="79" y="92" width="8" height="8" fill="#F07DFF"/>
<rect x="87" y="92" width="8" height="8" fill="#F07DFF"/>
<rect x="87" y="92" width="8" height="8" fill="#F07DFF"/>
<rect x="95" y="92" width="8" height="8" fill="#F07DFF"/>
<rect x="95" y="92" width="8" height="8" fill="#F07DFF"/>
<rect x="39" y="100" width="8" height="8" fill="#5D52A0"/>
<rect x="31" y="92" width="8" height="8" fill="#5D52A0"/>
<rect x="31" y="84" width="8" height="8" fill="#5D52A0"/>
<rect x="31" y="76" width="8" height="8" fill="#5D52A0"/>
<rect x="31" y="68" width="8" height="8" fill="#5D52A0"/>
<rect x="31" y="92" width="8" height="8" fill="#5D52A0"/>
<rect x="31" y="84" width="8" height="8" fill="#5D52A0"/>
<rect x="31" y="76" width="8" height="8" fill="#5D52A0"/>
<rect x="39" y="74" width="8" height="8" fill="#5D52A0"/>
<rect x="47" y="74" width="8" height="8" fill="#5D52A0"/>
<rect x="47" y="74" width="8" height="8" fill="#5D52A0"/>
<rect x="47" y="66" width="8" height="8" fill="#5D52A0"/>
<rect x="55" y="66" width="8" height="8" fill="#5D52A0"/>
<rect x="63" y="66" width="8" height="8" fill="#5D52A0"/>
<rect x="71" y="66" width="8" height="8" fill="#5D52A0"/>
<rect x="79" y="66" width="8" height="8" fill="#5D52A0"/>
<rect x="55" y="74" width="8" height="8" fill="white"/>
<rect x="63" y="74" width="8" height="8" fill="#5D52A0"/>
<rect x="71" y="74" width="8" height="8" fill="#5D52A0"/>
<rect x="79" y="74" width="8" height="8" fill="white"/>
<rect x="55" y="82" width="8" height="8" fill="#5D52A0"/>
<rect x="63" y="82" width="8" height="8" fill="#5D52A0"/>
<rect x="71" y="82" width="8" height="8" fill="#5D52A0"/>
<rect x="79" y="82" width="8" height="8" fill="#5D52A0"/>
<rect x="87" y="66" width="8" height="8" fill="#5D52A0"/>
<rect x="87" y="74" width="8" height="8" fill="#5D52A0"/>
<rect x="47" y="82" width="8" height="8" fill="#5D52A0"/>
<rect x="87" y="82" width="8" height="8" fill="#5D52A0"/>
<rect x="95" y="74" width="8" height="8" fill="#5D52A0"/>
<rect x="31" y="68" width="8" height="8" fill="#5D52A0"/>
<rect x="31" y="60" width="8" height="8" fill="#5D52A0"/>
<rect x="31" y="52" width="8" height="8" fill="#5D52A0"/>
<rect x="103" y="92" width="8" height="8" fill="#5D52A0"/>
<rect x="103" y="84" width="8" height="8" fill="#5D52A0"/>
<rect x="103" y="76" width="8" height="8" fill="#5D52A0"/>
<rect x="103" y="68" width="8" height="8" fill="#5D52A0"/>
<rect x="103" y="60" width="8" height="8" fill="#5D52A0"/>
<rect x="103" y="52" width="8" height="8" fill="#5D52A0"/>
<rect x="23" y="84" width="8" height="8" fill="#5D52A0"/>
<rect x="23" y="76" width="8" height="8" fill="#5D52A0"/>
<rect x="23" y="68" width="8" height="8" fill="#5D52A0"/>
<rect x="23" y="60" width="8" height="8" fill="#5D52A0"/>
<rect x="23" y="52" width="8" height="8" fill="#5D52A0"/>
<rect x="23" y="44" width="8" height="8" fill="#5D52A0"/>
<rect x="39" y="52" width="8" height="8" fill="#5D52A0"/>
<rect x="39" y="44" width="8" height="8" fill="#5D52A0"/>
<rect x="111" y="84" width="8" height="8" fill="#5D52A0"/>
<rect x="111" y="76" width="8" height="8" fill="#5D52A0"/>
<rect x="111" y="68" width="8" height="8" fill="#5D52A0"/>
<rect x="111" y="60" width="8" height="8" fill="#5D52A0"/>
<rect x="111" y="52" width="8" height="8" fill="#5D52A0"/>
<rect x="111" y="44" width="8" height="8" fill="#5D52A0"/>
<rect x="95" y="52" width="8" height="8" fill="#5D52A0"/>
<rect x="95" y="44" width="8" height="8" fill="#5D52A0"/>
<rect x="47" y="100" width="8" height="8" fill="#5D52A0"/>
<rect x="55" y="100" width="8" height="8" fill="#5D52A0"/>
<rect x="63" y="100" width="8" height="8" fill="#5D52A0"/>
<rect x="71" y="100" width="8" height="8" fill="#5D52A0"/>
<rect x="79" y="100" width="8" height="8" fill="#5D52A0"/>
<rect x="87" y="100" width="8" height="8" fill="#5D52A0"/>
<rect x="47" y="36" width="8" height="8" fill="#5D52A0"/>
<rect x="55" y="36" width="8" height="8" fill="#5D52A0"/>
<rect x="63" y="36" width="8" height="8" fill="#5D52A0"/>
<rect x="67" y="28" width="8" height="8" fill="#5D52A0"/>
<rect x="71" y="20" width="8" height="8" fill="#5D52A0"/>
<rect x="71" y="12" width="8" height="8" fill="#5D52A0"/>
<rect x="63" y="12" width="8" height="8" fill="#5D52A0"/>
<rect x="63" y="20" width="8" height="8" fill="#5D52A0"/>
<rect x="31" y="108" width="8" height="8" fill="white"/>
<rect x="31" y="100" width="8" height="8" fill="white"/>
<rect x="23" y="92" width="8" height="8" fill="white"/>
<rect x="15" y="92" width="8" height="8" fill="white"/>
<rect x="23" y="100" width="8" height="8" fill="white"/>
<rect x="15" y="84" width="8" height="8" fill="white"/>
<rect x="15" y="76" width="8" height="8" fill="white"/>
<rect x="15" y="68" width="8" height="8" fill="white"/>
<rect x="15" y="60" width="8" height="8" fill="white"/>
<rect x="15" y="52" width="8" height="8" fill="white"/>
<rect x="15" y="44" width="8" height="8" fill="white"/>
<rect x="31" y="44" width="8" height="8" fill="white"/>
<rect x="39" y="36" width="8" height="8" fill="white"/>
<rect x="59" y="28" width="8" height="8" fill="white"/>
<rect x="55" y="12" width="8" height="8" fill="white"/>
<rect x="55" y="4" width="8" height="8" fill="white"/>
<rect x="55" y="20" width="8" height="8" fill="white"/>
<rect x="71" y="36" width="8" height="8" fill="#5D52A0"/>
<rect x="79" y="36" width="8" height="8" fill="#5D52A0"/>
<rect x="87" y="36" width="8" height="8" fill="#5D52A0"/>
<rect x="23" y="36" width="8" height="8" fill="white"/>
<rect x="111" y="36" width="8" height="8" fill="white"/>
<rect x="47" y="28" width="8" height="8" fill="white"/>
<rect x="55" y="28" width="8" height="8" fill="white"/>
<rect x="71" y="4" width="8" height="8" fill="white"/>
<rect x="63" y="4" width="8" height="8" fill="white"/>
<rect x="79" y="28" width="8" height="8" fill="white"/>
<rect x="87" y="28" width="8" height="8" fill="white"/>
<rect x="95" y="100" width="8" height="8" fill="#5D52A0"/>
<rect x="39" y="108" width="8" height="8" fill="white"/>
<rect x="47" y="108" width="8" height="8" fill="white"/>
<rect x="55" y="108" width="8" height="8" fill="white"/>
<rect x="63" y="108" width="8" height="8" fill="white"/>
<rect x="71" y="108" width="8" height="8" fill="white"/>
<rect x="79" y="108" width="8" height="8" fill="white"/>
<rect x="87" y="108" width="8" height="8" fill="white"/>
<rect x="95" y="108" width="8" height="8" fill="white"/>
<rect x="111" y="92" width="8" height="8" fill="white"/>
<rect x="119" y="84" width="8" height="8" fill="white"/>
<rect x="119" y="76" width="8" height="8" fill="white"/>
<rect x="119" y="68" width="8" height="8" fill="white"/>
<rect x="119" y="60" width="8" height="8" fill="white"/>
<rect x="119" y="52" width="8" height="8" fill="white"/>
<rect x="119" y="44" width="8" height="8" fill="white"/>
<rect x="103" y="44" width="8" height="8" fill="white"/>
<rect x="75" y="28" width="8" height="8" fill="white"/>
<rect x="79" y="20" width="8" height="8" fill="white"/>
<rect x="79" y="12" width="8" height="8" fill="white"/>
<rect x="79" y="4" width="8" height="8" fill="white"/>
<rect x="95" y="36" width="8" height="8" fill="white"/>
<rect x="15" y="36" width="8" height="8" fill="white"/>
<rect x="31" y="36" width="8" height="8" fill="white"/>
<rect x="39" y="28" width="8" height="8" fill="white"/>
<rect x="119" y="36" width="8" height="8" fill="white"/>
<rect x="103" y="36" width="8" height="8" fill="white"/>
<rect x="95" y="28" width="8" height="8" fill="white"/>
<rect x="103" y="100" width="8" height="8" fill="white"/>
<rect x="119" y="92" width="8" height="8" fill="white"/>
<rect x="111" y="100" width="8" height="8" fill="white"/>
<rect x="103" y="108" width="8" height="8" fill="white"/>
<rect x="39" y="92" width="8" height="8" fill="#F07DFF"/>
<rect x="39" y="92" width="8" height="8" fill="#F07DFF"/>
<rect x="47" y="92" width="8" height="8" fill="#F07DFF"/>
<rect x="47" y="92" width="8" height="8" fill="#F07DFF"/>
<rect x="55" y="92" width="8" height="8" fill="#F07DFF"/>
<rect x="55" y="92" width="8" height="8" fill="#F07DFF"/>
<rect x="63" y="92" width="8" height="8" fill="#F07DFF"/>
<rect x="63" y="92" width="8" height="8" fill="#F07DFF"/>
<rect x="71" y="92" width="8" height="8" fill="#F07DFF"/>
<rect x="71" y="92" width="8" height="8" fill="#F07DFF"/>
<rect x="79" y="92" width="8" height="8" fill="#F07DFF"/>
<rect x="79" y="92" width="8" height="8" fill="#F07DFF"/>
<rect x="87" y="92" width="8" height="8" fill="#F07DFF"/>
<rect x="87" y="92" width="8" height="8" fill="#F07DFF"/>
<rect x="95" y="92" width="8" height="8" fill="#F07DFF"/>
<rect x="95" y="92" width="8" height="8" fill="#F07DFF"/>
</svg>
