<svg xmlns="http://www.w3.org/2000/svg" width="580" height="128" fill="none"><rect width="580" height="128" fill="#fff" rx="24"/><path fill="#5D52A0" d="M146.963 100V30.182h29.113q7.842 0 13.125 2.216 5.319 2.216 7.978 6.204 2.693 3.99 2.693 9.239 0 3.988-1.671 7.125a14.7 14.7 0 0 1-4.602 5.148q-2.932 2.045-6.784 2.863v.682q4.227.205 7.807 2.284 3.614 2.079 5.795 5.796 2.182 3.681 2.182 8.727 0 5.625-2.864 10.057-2.863 4.398-8.284 6.954-5.42 2.523-13.159 2.523zm16.875-13.602h10.431q5.49 0 8.08-2.08 2.625-2.08 2.625-5.795 0-2.693-1.261-4.637-1.261-1.977-3.58-3.034-2.318-1.09-5.557-1.09h-10.738zm0-27.512h9.341q2.76 0 4.909-.92 2.147-.92 3.341-2.66 1.227-1.737 1.227-4.192 0-3.512-2.489-5.523t-6.716-2.011h-9.613zm66.518 42.103q-8.25 0-14.182-3.375-5.898-3.41-9.102-9.478-3.171-6.102-3.171-14.147 0-8.08 3.171-14.148 3.204-6.102 9.102-9.477 5.932-3.41 14.182-3.41t14.148 3.41q5.931 3.375 9.102 9.477 3.204 6.068 3.204 14.148 0 8.045-3.204 14.147-3.171 6.069-9.102 9.478-5.898 3.375-14.148 3.375m.102-12.58q3 0 5.08-1.84 2.08-1.842 3.17-5.115 1.125-3.272 1.125-7.568 0-4.363-1.125-7.636-1.09-3.273-3.17-5.114t-5.08-1.84q-3.102 0-5.25 1.84-2.114 1.842-3.239 5.114-1.09 3.273-1.09 7.636 0 4.296 1.09 7.569 1.125 3.272 3.239 5.113 2.148 1.841 5.25 1.841m59.649-40.773V59.91h-33.034V47.636zm-26.114-12.545h16.671v48.443q0 1.534.477 2.489.512.92 1.466 1.33.954.374 2.284.374.954 0 2.011-.17 1.092-.204 1.637-.341l2.523 12.034q-1.194.34-3.375.852-2.148.512-5.148.648-5.864.273-10.057-1.364-4.16-1.67-6.375-5.181-2.182-3.511-2.114-8.83zM324.74 100h-18.136l23.556-69.818h22.466L376.183 100h-18.136l-16.398-52.227h-.545zm-2.42-27.477h37.909V85.34H322.32zm73.251-2.387V100H378.9V47.636h15.852v9.614h.58q1.738-4.807 5.932-7.534 4.193-2.761 9.988-2.761 5.523 0 9.58 2.488 4.09 2.455 6.341 6.887 2.285 4.397 2.25 10.295V100h-16.671V69.898q.035-4.365-2.215-6.818-2.217-2.455-6.171-2.455-2.625 0-4.636 1.16-1.977 1.125-3.068 3.238-1.058 2.113-1.091 5.113M434.944 100V47.636h16.67V100zm8.352-58.466q-3.511 0-6.034-2.318-2.523-2.352-2.523-5.66 0-3.272 2.523-5.59 2.523-2.352 6.034-2.352 3.546 0 6.034 2.352 2.523 2.318 2.523 5.59 0 3.308-2.523 5.66-2.488 2.318-6.034 2.318m38.572 59.455q-8.283 0-14.216-3.41-5.897-3.408-9.068-9.477-3.17-6.102-3.17-14.113 0-8.046 3.17-14.114 3.205-6.102 9.103-9.511 5.931-3.41 14.147-3.41 7.262 0 12.648 2.626 5.42 2.625 8.455 7.431 3.068 4.773 3.238 11.216h-15.579q-.478-4.022-2.728-6.307-2.216-2.284-5.795-2.284-2.898 0-5.08 1.637-2.182 1.602-3.409 4.773-1.193 3.135-1.193 7.772t1.193 7.841q1.227 3.17 3.409 4.807 2.182 1.602 5.08 1.602 2.318 0 4.091-.989 1.806-.987 2.966-2.897 1.158-1.944 1.466-4.705h15.579q-.238 6.478-3.238 11.319-2.967 4.84-8.353 7.533-5.352 2.66-12.716 2.66m42.8-.103q-5.011 0-8.898-1.67-3.852-1.704-6.102-5.114-2.216-3.443-2.216-8.625 0-4.363 1.534-7.363t4.227-4.875 6.205-2.83q3.511-.988 7.5-1.33 4.466-.408 7.193-.852 2.727-.477 3.955-1.33 1.26-.886 1.261-2.488v-.17q0-2.626-1.807-4.057t-4.875-1.432q-3.306 0-5.318 1.432t-2.557 3.954l-15.375-.545q.682-4.773 3.511-8.523 2.865-3.784 7.841-5.932 5.012-2.181 12.034-2.181 5.012 0 9.239 1.193 4.227 1.158 7.364 3.409 3.136 2.215 4.841 5.454 1.738 3.24 1.738 7.398V100h-15.682v-7.296h-.409q-1.397 2.66-3.579 4.5-2.148 1.841-5.08 2.762-2.898.92-6.545.92m5.148-10.909q2.693 0 4.84-1.09 2.182-1.092 3.478-3 1.295-1.944 1.295-4.5v-4.978a10 10 0 0 1-1.738.682q-.99.307-2.182.58-1.194.272-2.455.477t-2.42.375q-2.352.375-4.023 1.159-1.636.783-2.523 2.045-.852 1.228-.852 2.932 0 2.59 1.841 3.955 1.874 1.363 4.739 1.363"/><path fill="#F07DFF" d="M39 84h8v8h-8z"/><path fill="#F07DFF" d="M39 84h8v8h-8zM47 84h8v8h-8z"/><path fill="#F07DFF" d="M47 84h8v8h-8zM55 84h8v8h-8z"/><path fill="#F07DFF" d="M55 84h8v8h-8zM63 84h8v8h-8z"/><path fill="#F07DFF" d="M63 84h8v8h-8zM71 84h8v8h-8z"/><path fill="#F07DFF" d="M71 84h8v8h-8zM79 84h8v8h-8z"/><path fill="#F07DFF" d="M79 84h8v8h-8zM87 84h8v8h-8z"/><path fill="#F07DFF" d="M87 84h8v8h-8zM95 84h8v8h-8z"/><path fill="#F07DFF" d="M95 84h8v8h-8zM39 76h8v8h-8z"/><path fill="#F07DFF" d="M39 76h8v8h-8zM47 76h8v8h-8z"/><path fill="#F07DFF" d="M47 76h8v8h-8zM55 76h8v8h-8z"/><path fill="#F07DFF" d="M55 76h8v8h-8zM63 76h8v8h-8z"/><path fill="#F07DFF" d="M63 76h8v8h-8zM71 76h8v8h-8z"/><path fill="#F07DFF" d="M71 76h8v8h-8zM79 76h8v8h-8z"/><path fill="#F07DFF" d="M79 76h8v8h-8zM87 76h8v8h-8z"/><path fill="#F07DFF" d="M87 76h8v8h-8zM95 76h8v8h-8z"/><path fill="#F07DFF" d="M95 76h8v8h-8zM39 68h8v8h-8z"/><path fill="#F07DFF" d="M39 68h8v8h-8zM47 68h8v8h-8z"/><path fill="#F07DFF" d="M47 68h8v8h-8zM55 68h8v8h-8z"/><path fill="#F07DFF" d="M55 68h8v8h-8zM63 68h8v8h-8z"/><path fill="#F07DFF" d="M63 68h8v8h-8zM71 68h8v8h-8z"/><path fill="#F07DFF" d="M71 68h8v8h-8zM79 68h8v8h-8z"/><path fill="#F07DFF" d="M79 68h8v8h-8zM87 68h8v8h-8z"/><path fill="#F07DFF" d="M87 68h8v8h-8zM95 68h8v8h-8z"/><path fill="#F07DFF" d="M95 68h8v8h-8zM39 60h8v8h-8z"/><path fill="#F07DFF" d="M39 60h8v8h-8zM47 60h8v8h-8z"/><path fill="#F07DFF" d="M47 60h8v8h-8zM55 60h8v8h-8z"/><path fill="#F07DFF" d="M55 60h8v8h-8zM63 60h8v8h-8z"/><path fill="#F07DFF" d="M63 60h8v8h-8zM71 60h8v8h-8z"/><path fill="#F07DFF" d="M71 60h8v8h-8zM79 60h8v8h-8z"/><path fill="#F07DFF" d="M79 60h8v8h-8zM87 60h8v8h-8z"/><path fill="#F07DFF" d="M87 60h8v8h-8zM95 60h8v8h-8z"/><path fill="#F07DFF" d="M95 60h8v8h-8zM39 52h8v8h-8z"/><path fill="#F07DFF" d="M39 52h8v8h-8zM47 52h8v8h-8z"/><path fill="#F07DFF" d="M47 52h8v8h-8zM55 52h8v8h-8z"/><path fill="#F07DFF" d="M55 52h8v8h-8zM63 52h8v8h-8z"/><path fill="#F07DFF" d="M63 52h8v8h-8zM71 52h8v8h-8z"/><path fill="#F07DFF" d="M71 52h8v8h-8zM79 52h8v8h-8z"/><path fill="#F07DFF" d="M79 52h8v8h-8zM87 52h8v8h-8z"/><path fill="#F07DFF" d="M87 52h8v8h-8zM95 52h8v8h-8z"/><path fill="#F07DFF" d="M95 52h8v8h-8zM39 44h8v8h-8z"/><path fill="#F07DFF" d="M39 44h8v8h-8zM47 44h8v8h-8z"/><path fill="#F07DFF" d="M47 44h8v8h-8zM55 44h8v8h-8z"/><path fill="#F07DFF" d="M55 44h8v8h-8zM63 44h8v8h-8z"/><path fill="#F07DFF" d="M63 44h8v8h-8zM71 44h8v8h-8z"/><path fill="#F07DFF" d="M71 44h8v8h-8zM79 44h8v8h-8z"/><path fill="#F07DFF" d="M79 44h8v8h-8zM87 44h8v8h-8z"/><path fill="#F07DFF" d="M87 44h8v8h-8zM95 44h8v8h-8z"/><path fill="#F07DFF" d="M95 44h8v8h-8zM39 92h8v8h-8z"/><path fill="#F07DFF" d="M39 92h8v8h-8zM47 92h8v8h-8z"/><path fill="#F07DFF" d="M47 92h8v8h-8zM55 92h8v8h-8z"/><path fill="#F07DFF" d="M55 92h8v8h-8zM63 92h8v8h-8z"/><path fill="#F07DFF" d="M63 92h8v8h-8zM71 92h8v8h-8z"/><path fill="#F07DFF" d="M71 92h8v8h-8zM79 92h8v8h-8z"/><path fill="#F07DFF" d="M79 92h8v8h-8zM87 92h8v8h-8z"/><path fill="#F07DFF" d="M87 92h8v8h-8zM95 92h8v8h-8z"/><path fill="#F07DFF" d="M95 92h8v8h-8z"/><path fill="#5D52A0" d="M39 100h8v8h-8zM31 92h8v8h-8zM31 84h8v8h-8zM31 76h8v8h-8zM31 68h8v8h-8z"/><path fill="#5D52A0" d="M31 92h8v8h-8zM31 84h8v8h-8zM31 76h8v8h-8zM39 74h8v8h-8zM47 74h8v8h-8z"/><path fill="#5D52A0" d="M47 74h8v8h-8zM47 66h8v8h-8zM55 66h8v8h-8zM63 66h8v8h-8zM71 66h8v8h-8zM79 66h8v8h-8z"/><path fill="#fff" d="M55 74h8v8h-8z"/><path fill="#5D52A0" d="M63 74h8v8h-8zM71 74h8v8h-8z"/><path fill="#fff" d="M79 74h8v8h-8z"/><path fill="#5D52A0" d="M55 82h8v8h-8zM63 82h8v8h-8zM71 82h8v8h-8zM79 82h8v8h-8zM87 66h8v8h-8zM87 74h8v8h-8zM47 82h8v8h-8zM87 82h8v8h-8zM95 74h8v8h-8zM31 68h8v8h-8zM31 60h8v8h-8zM31 52h8v8h-8zM103 92h8v8h-8zM103 84h8v8h-8zM103 76h8v8h-8zM103 68h8v8h-8zM103 60h8v8h-8zM103 52h8v8h-8zM23 84h8v8h-8zM23 76h8v8h-8zM23 68h8v8h-8zM23 60h8v8h-8zM23 52h8v8h-8zM23 44h8v8h-8zM39 52h8v8h-8zM39 44h8v8h-8zM111 84h8v8h-8zM111 76h8v8h-8zM111 68h8v8h-8zM111 60h8v8h-8zM111 52h8v8h-8zM111 44h8v8h-8zM95 52h8v8h-8zM95 44h8v8h-8zM47 100h8v8h-8zM55 100h8v8h-8zM63 100h8v8h-8zM71 100h8v8h-8zM79 100h8v8h-8zM87 100h8v8h-8zM47 36h8v8h-8zM55 36h8v8h-8zM63 36h8v8h-8zM67 28h8v8h-8zM71 20h8v8h-8zM71 12h8v8h-8zM63 12h8v8h-8zM63 20h8v8h-8z"/><path fill="#fff" d="M31 108h8v8h-8zM31 100h8v8h-8zM23 92h8v8h-8zM15 92h8v8h-8zM23 100h8v8h-8zM15 84h8v8h-8zM15 76h8v8h-8zM15 68h8v8h-8zM15 60h8v8h-8zM15 52h8v8h-8zM15 44h8v8h-8zM31 44h8v8h-8zM39 36h8v8h-8zM59 28h8v8h-8zM55 12h8v8h-8zM55 4h8v8h-8zM55 20h8v8h-8z"/><path fill="#5D52A0" d="M71 36h8v8h-8zM79 36h8v8h-8zM87 36h8v8h-8z"/><path fill="#fff" d="M23 36h8v8h-8zM111 36h8v8h-8zM47 28h8v8h-8zM55 28h8v8h-8zM71 4h8v8h-8zM63 4h8v8h-8zM79 28h8v8h-8zM87 28h8v8h-8z"/><path fill="#5D52A0" d="M95 100h8v8h-8z"/><path fill="#fff" d="M39 108h8v8h-8zM47 108h8v8h-8zM55 108h8v8h-8zM63 108h8v8h-8zM71 108h8v8h-8zM79 108h8v8h-8zM87 108h8v8h-8zM95 108h8v8h-8zM111 92h8v8h-8zM119 84h8v8h-8zM119 76h8v8h-8zM119 68h8v8h-8zM119 60h8v8h-8zM119 52h8v8h-8zM119 44h8v8h-8zM103 44h8v8h-8zM75 28h8v8h-8zM79 20h8v8h-8zM79 12h8v8h-8zM79 4h8v8h-8zM95 36h8v8h-8zM15 36h8v8h-8zM31 36h8v8h-8zM39 28h8v8h-8zM119 36h8v8h-8zM103 36h8v8h-8zM95 28h8v8h-8zM103 100h8v8h-8zM119 92h8v8h-8zM111 100h8v8h-8zM103 108h8v8h-8z"/><path fill="#F07DFF" d="M39 92h8v8h-8z"/><path fill="#F07DFF" d="M39 92h8v8h-8zM47 92h8v8h-8z"/><path fill="#F07DFF" d="M47 92h8v8h-8zM55 92h8v8h-8z"/><path fill="#F07DFF" d="M55 92h8v8h-8zM63 92h8v8h-8z"/><path fill="#F07DFF" d="M63 92h8v8h-8zM71 92h8v8h-8z"/><path fill="#F07DFF" d="M71 92h8v8h-8zM79 92h8v8h-8z"/><path fill="#F07DFF" d="M79 92h8v8h-8zM87 92h8v8h-8z"/><path fill="#F07DFF" d="M87 92h8v8h-8zM95 92h8v8h-8z"/><path fill="#F07DFF" d="M95 92h8v8h-8z"/></svg>