<svg xmlns="http://www.w3.org/2000/svg" width="562" height="119" fill="none"><path fill="#5D52A0" d="M131.963 96V26.182h29.113q7.842 0 13.125 2.216 5.319 2.215 7.978 6.204 2.693 3.99 2.693 9.239 0 3.988-1.671 7.125a14.7 14.7 0 0 1-4.602 5.148q-2.932 2.045-6.784 2.863v.682q4.227.205 7.807 2.284 3.614 2.08 5.795 5.796 2.182 3.681 2.182 8.727 0 5.625-2.864 10.057-2.863 4.398-8.284 6.954Q171.031 96 163.292 96zm16.875-13.602h10.431q5.49 0 8.08-2.08 2.625-2.08 2.625-5.795 0-2.693-1.261-4.637-1.261-1.977-3.58-3.034-2.318-1.09-5.557-1.09h-10.738zm0-27.512h9.341q2.76 0 4.909-.92 2.147-.92 3.341-2.66 1.227-1.737 1.227-4.192 0-3.512-2.489-5.523t-6.716-2.011h-9.613zm66.518 42.103q-8.25 0-14.182-3.375-5.898-3.41-9.102-9.478-3.171-6.102-3.171-14.147 0-8.08 3.171-14.148 3.204-6.102 9.102-9.477 5.932-3.41 14.182-3.41t14.148 3.41q5.931 3.375 9.102 9.477 3.204 6.068 3.204 14.148 0 8.045-3.204 14.147-3.171 6.069-9.102 9.478-5.898 3.375-14.148 3.375m.102-12.58q3 0 5.08-1.84 2.08-1.842 3.17-5.115 1.125-3.272 1.125-7.568 0-4.363-1.125-7.636-1.09-3.273-3.17-5.114t-5.08-1.84q-3.102 0-5.25 1.84-2.114 1.842-3.239 5.114-1.09 3.273-1.09 7.636 0 4.296 1.09 7.569 1.125 3.272 3.239 5.113 2.148 1.841 5.25 1.841m59.649-40.773V55.91h-33.034V43.636zm-26.114-12.545h16.671v48.443q0 1.534.477 2.489.512.92 1.466 1.33.954.374 2.284.374.954 0 2.011-.17 1.092-.204 1.637-.341l2.523 12.034q-1.194.34-3.375.852-2.148.511-5.148.648-5.864.273-10.057-1.364-4.16-1.67-6.375-5.181-2.182-3.511-2.114-8.83zM309.74 96h-18.136l23.556-69.818h22.466L361.183 96h-18.136l-16.398-52.227h-.545zm-2.42-27.477h37.909V81.34H307.32zm73.251-2.387V96H363.9V43.636h15.852v9.614h.58q1.738-4.807 5.932-7.534 4.193-2.761 9.988-2.761 5.523 0 9.58 2.488 4.09 2.455 6.341 6.887 2.285 4.397 2.25 10.295V96h-16.671V65.898q.035-4.365-2.215-6.818-2.217-2.455-6.171-2.455-2.625 0-4.636 1.16-1.977 1.125-3.068 3.238-1.058 2.113-1.091 5.113M419.944 96V43.636h16.67V96zm8.352-58.466q-3.511 0-6.034-2.318-2.523-2.352-2.523-5.66 0-3.272 2.523-5.59 2.523-2.352 6.034-2.352 3.546 0 6.034 2.352 2.523 2.318 2.523 5.59 0 3.308-2.523 5.66-2.488 2.318-6.034 2.318m38.572 59.455q-8.283 0-14.216-3.41-5.897-3.408-9.068-9.477-3.17-6.102-3.17-14.113 0-8.046 3.17-14.114 3.205-6.102 9.103-9.511 5.931-3.41 14.147-3.41 7.262 0 12.648 2.626 5.42 2.625 8.455 7.431 3.068 4.773 3.238 11.216h-15.579q-.478-4.023-2.728-6.307-2.216-2.284-5.795-2.284-2.898 0-5.08 1.637-2.182 1.602-3.409 4.772-1.193 3.136-1.193 7.773t1.193 7.841q1.227 3.17 3.409 4.807 2.182 1.602 5.08 1.602 2.318 0 4.091-.989 1.806-.987 2.966-2.897 1.158-1.944 1.466-4.705h15.579q-.238 6.478-3.238 11.319-2.967 4.84-8.353 7.533-5.352 2.66-12.716 2.66m42.8-.103q-5.011 0-8.898-1.67-3.852-1.704-6.102-5.114-2.216-3.443-2.216-8.625 0-4.363 1.534-7.363t4.227-4.875 6.205-2.83q3.512-.988 7.5-1.33 4.466-.408 7.193-.852 2.727-.477 3.955-1.33 1.26-.886 1.261-2.488v-.17q0-2.626-1.807-4.057t-4.875-1.432q-3.306 0-5.318 1.432t-2.557 3.954l-15.375-.545q.682-4.773 3.511-8.523 2.865-3.784 7.841-5.932 5.012-2.181 12.034-2.181 5.012 0 9.239 1.193 4.227 1.158 7.364 3.409 3.136 2.215 4.841 5.454 1.738 3.24 1.738 7.398V96h-15.682v-7.296h-.409q-1.397 2.66-3.579 4.5-2.148 1.841-5.08 2.762-2.898.92-6.545.92m5.148-10.909q2.693 0 4.84-1.09 2.182-1.092 3.478-3 1.295-1.944 1.295-4.5v-4.978a10 10 0 0 1-1.738.682q-.99.307-2.182.58-1.194.272-2.455.477t-2.42.375q-2.352.375-4.023 1.159-1.637.783-2.523 2.045-.852 1.228-.852 2.932 0 2.59 1.841 3.955 1.874 1.363 4.739 1.363"/><path fill="#F07DFF" d="M24 80h8v8h-8z"/><path fill="#F07DFF" d="M24 80h8v8h-8zM32 80h8v8h-8z"/><path fill="#F07DFF" d="M32 80h8v8h-8zM40 80h8v8h-8z"/><path fill="#F07DFF" d="M40 80h8v8h-8zM48 80h8v8h-8z"/><path fill="#F07DFF" d="M48 80h8v8h-8zM56 80h8v8h-8z"/><path fill="#F07DFF" d="M56 80h8v8h-8zM64 80h8v8h-8z"/><path fill="#F07DFF" d="M64 80h8v8h-8zM72 80h8v8h-8z"/><path fill="#F07DFF" d="M72 80h8v8h-8zM80 80h8v8h-8z"/><path fill="#F07DFF" d="M80 80h8v8h-8zM24 72h8v8h-8z"/><path fill="#F07DFF" d="M24 72h8v8h-8zM32 72h8v8h-8z"/><path fill="#F07DFF" d="M32 72h8v8h-8zM40 72h8v8h-8z"/><path fill="#F07DFF" d="M40 72h8v8h-8zM48 72h8v8h-8z"/><path fill="#F07DFF" d="M48 72h8v8h-8zM56 72h8v8h-8z"/><path fill="#F07DFF" d="M56 72h8v8h-8zM64 72h8v8h-8z"/><path fill="#F07DFF" d="M64 72h8v8h-8zM72 72h8v8h-8z"/><path fill="#F07DFF" d="M72 72h8v8h-8zM80 72h8v8h-8z"/><path fill="#F07DFF" d="M80 72h8v8h-8zM24 64h8v8h-8z"/><path fill="#F07DFF" d="M24 64h8v8h-8zM32 64h8v8h-8z"/><path fill="#F07DFF" d="M32 64h8v8h-8zM40 64h8v8h-8z"/><path fill="#F07DFF" d="M40 64h8v8h-8zM48 64h8v8h-8z"/><path fill="#F07DFF" d="M48 64h8v8h-8zM56 64h8v8h-8z"/><path fill="#F07DFF" d="M56 64h8v8h-8zM64 64h8v8h-8z"/><path fill="#F07DFF" d="M64 64h8v8h-8zM72 64h8v8h-8z"/><path fill="#F07DFF" d="M72 64h8v8h-8zM80 64h8v8h-8z"/><path fill="#F07DFF" d="M80 64h8v8h-8zM24 56h8v8h-8z"/><path fill="#F07DFF" d="M24 56h8v8h-8zM32 56h8v8h-8z"/><path fill="#F07DFF" d="M32 56h8v8h-8zM40 56h8v8h-8z"/><path fill="#F07DFF" d="M40 56h8v8h-8zM48 56h8v8h-8z"/><path fill="#F07DFF" d="M48 56h8v8h-8zM56 56h8v8h-8z"/><path fill="#F07DFF" d="M56 56h8v8h-8zM64 56h8v8h-8z"/><path fill="#F07DFF" d="M64 56h8v8h-8zM72 56h8v8h-8z"/><path fill="#F07DFF" d="M72 56h8v8h-8zM80 56h8v8h-8z"/><path fill="#F07DFF" d="M80 56h8v8h-8zM24 48h8v8h-8z"/><path fill="#F07DFF" d="M24 48h8v8h-8zM32 48h8v8h-8z"/><path fill="#F07DFF" d="M32 48h8v8h-8zM40 48h8v8h-8z"/><path fill="#F07DFF" d="M40 48h8v8h-8zM48 48h8v8h-8z"/><path fill="#F07DFF" d="M48 48h8v8h-8zM56 48h8v8h-8z"/><path fill="#F07DFF" d="M56 48h8v8h-8zM64 48h8v8h-8z"/><path fill="#F07DFF" d="M64 48h8v8h-8zM72 48h8v8h-8z"/><path fill="#F07DFF" d="M72 48h8v8h-8zM80 48h8v8h-8z"/><path fill="#F07DFF" d="M80 48h8v8h-8zM24 40h8v8h-8z"/><path fill="#F07DFF" d="M24 40h8v8h-8zM32 40h8v8h-8z"/><path fill="#F07DFF" d="M32 40h8v8h-8zM40 40h8v8h-8z"/><path fill="#F07DFF" d="M40 40h8v8h-8zM48 40h8v8h-8z"/><path fill="#F07DFF" d="M48 40h8v8h-8zM56 40h8v8h-8z"/><path fill="#F07DFF" d="M56 40h8v8h-8zM64 40h8v8h-8z"/><path fill="#F07DFF" d="M64 40h8v8h-8zM72 40h8v8h-8z"/><path fill="#F07DFF" d="M72 40h8v8h-8zM80 40h8v8h-8z"/><path fill="#F07DFF" d="M80 40h8v8h-8zM24 88h8v8h-8z"/><path fill="#F07DFF" d="M24 88h8v8h-8zM32 88h8v8h-8z"/><path fill="#F07DFF" d="M32 88h8v8h-8zM40 88h8v8h-8z"/><path fill="#F07DFF" d="M40 88h8v8h-8zM48 88h8v8h-8z"/><path fill="#F07DFF" d="M48 88h8v8h-8zM56 88h8v8h-8z"/><path fill="#F07DFF" d="M56 88h8v8h-8zM64 88h8v8h-8z"/><path fill="#F07DFF" d="M64 88h8v8h-8zM72 88h8v8h-8z"/><path fill="#F07DFF" d="M72 88h8v8h-8zM80 88h8v8h-8z"/><path fill="#F07DFF" d="M80 88h8v8h-8z"/><path fill="#5D52A0" d="M24 96h8v8h-8zM16 88h8v8h-8zM16 80h8v8h-8zM16 72h8v8h-8zM16 64h8v8h-8z"/><path fill="#5D52A0" d="M16 88h8v8h-8zM16 80h8v8h-8zM16 72h8v8h-8zM24 70h8v8h-8zM32 70h8v8h-8z"/><path fill="#5D52A0" d="M32 70h8v8h-8zM32 62h8v8h-8zM40 62h8v8h-8zM48 62h8v8h-8zM56 62h8v8h-8zM64 62h8v8h-8z"/><path fill="#fff" d="M40 70h8v8h-8z"/><path fill="#5D52A0" d="M48 70h8v8h-8zM56 70h8v8h-8z"/><path fill="#fff" d="M64 70h8v8h-8z"/><path fill="#5D52A0" d="M40 78h8v8h-8zM48 78h8v8h-8zM56 78h8v8h-8zM64 78h8v8h-8zM72 62h8v8h-8zM72 70h8v8h-8zM32 78h8v8h-8zM72 78h8v8h-8zM80 70h8v8h-8zM16 64h8v8h-8zM16 56h8v8h-8zM16 48h8v8h-8zM88 88h8v8h-8zM88 80h8v8h-8zM88 72h8v8h-8zM88 64h8v8h-8zM88 56h8v8h-8zM88 48h8v8h-8zM8 80h8v8H8zM8 72h8v8H8zM8 64h8v8H8zM8 56h8v8H8zM8 48h8v8H8zM8 40h8v8H8zM24 48h8v8h-8zM24 40h8v8h-8zM96 80h8v8h-8zM96 72h8v8h-8zM96 64h8v8h-8zM96 56h8v8h-8zM96 48h8v8h-8zM96 40h8v8h-8zM80 48h8v8h-8zM80 40h8v8h-8zM32 96h8v8h-8zM40 96h8v8h-8zM48 96h8v8h-8zM56 96h8v8h-8zM64 96h8v8h-8zM72 96h8v8h-8zM32 32h8v8h-8zM40 32h8v8h-8zM48 32h8v8h-8zM52 24h8v8h-8zM56 16h8v8h-8zM56 8h8v8h-8zM48 8h8v8h-8zM48 16h8v8h-8z"/><path fill="#fff" d="M16 104h8v8h-8zM16 96h8v8h-8zM8 88h8v8H8zM0 88h8v8H0zM8 96h8v8H8zM0 80h8v8H0zM0 72h8v8H0zM0 64h8v8H0zM0 56h8v8H0zM0 48h8v8H0zM0 40h8v8H0zM16 40h8v8h-8zM24 32h8v8h-8zM44 24h8v8h-8zM40 8h8v8h-8zM40 0h8v8h-8zM40 16h8v8h-8z"/><path fill="#5D52A0" d="M56 32h8v8h-8zM64 32h8v8h-8zM72 32h8v8h-8z"/><path fill="#fff" d="M8 32h8v8H8zM96 32h8v8h-8zM32 24h8v8h-8zM40 24h8v8h-8zM56 0h8v8h-8zM48 0h8v8h-8zM64 24h8v8h-8zM72 24h8v8h-8z"/><path fill="#5D52A0" d="M80 96h8v8h-8z"/><path fill="#fff" d="M24 104h8v8h-8zM32 104h8v8h-8zM40 104h8v8h-8zM48 104h8v8h-8zM56 104h8v8h-8zM64 104h8v8h-8zM72 104h8v8h-8zM80 104h8v8h-8zM96 88h8v8h-8zM104 80h8v8h-8zM104 72h8v8h-8zM104 64h8v8h-8zM104 56h8v8h-8zM104 48h8v8h-8zM104 40h8v8h-8zM88 40h8v8h-8zM60 24h8v8h-8zM64 16h8v8h-8zM64 8h8v8h-8zM64 0h8v8h-8zM80 32h8v8h-8zM0 32h8v8H0zM16 32h8v8h-8zM24 24h8v8h-8zM104 32h8v8h-8zM88 32h8v8h-8zM80 24h8v8h-8zM88 96h8v8h-8zM104 88h8v8h-8zM96 96h8v8h-8zM88 104h8v8h-8z"/><path fill="#F07DFF" d="M24 88h8v8h-8z"/><path fill="#F07DFF" d="M24 88h8v8h-8zM32 88h8v8h-8z"/><path fill="#F07DFF" d="M32 88h8v8h-8zM40 88h8v8h-8z"/><path fill="#F07DFF" d="M40 88h8v8h-8zM48 88h8v8h-8z"/><path fill="#F07DFF" d="M48 88h8v8h-8zM56 88h8v8h-8z"/><path fill="#F07DFF" d="M56 88h8v8h-8zM64 88h8v8h-8z"/><path fill="#F07DFF" d="M64 88h8v8h-8zM72 88h8v8h-8z"/><path fill="#F07DFF" d="M72 88h8v8h-8zM80 88h8v8h-8z"/><path fill="#F07DFF" d="M80 88h8v8h-8z"/></svg>